<svg width="189" height="161" viewBox="0 0 189 161" fill="none" xmlns="http://www.w3.org/2000/svg">
<path d="M119.62 130.075C157.517 130.075 188.239 100.957 188.239 65.0376C188.239 29.1184 157.517 0 119.62 0C81.722 0 51 29.1184 51 65.0376C51 100.957 81.722 130.075 119.62 130.075Z" fill="#919F2B"/>
<path d="M120.381 0.112305C120.287 0.115855 120.194 0.119581 120.101 0.123493V130.199C120.194 130.203 120.287 130.206 120.381 130.21C138.58 130.21 156.033 123.358 168.902 111.161C181.771 98.9639 189 82.4213 189 65.1723C189 47.9233 181.771 31.3807 168.902 19.1838C156.033 6.98688 138.58 0.134681 120.381 0.134681V0.112305Z" fill="#6E7F2D"/>
<path d="M120.363 24.2329L120.215 159.967Z" fill="#1A1A1A"/>
<path d="M120.363 24.2329L120.215 159.967" stroke="#4C2121" stroke-width="1.09334"/>
<path d="M148.246 47.5391L120.248 82.1252Z" fill="#1A1A1A"/>
<path d="M148.246 47.5391L120.248 82.1252" stroke="#4C2121" stroke-width="0.329758"/>
<path d="M99.041 53.7534L120.724 71.031Z" fill="#1A1A1A"/>
<path d="M99.041 53.7534L120.724 71.031" stroke="#4C2121" stroke-width="0.409643"/>
<path d="M90.8408 84.8286L120.315 113.34Z" fill="#1A1A1A"/>
<path d="M90.8408 84.8286L120.315 113.34" stroke="#4C2121" stroke-width="0.329758"/>
<path d="M151.527 86.3828L124.76 99.5894Z" fill="#1A1A1A"/>
<path d="M151.527 86.3828L124.76 99.5894" stroke="#4C2121" stroke-width="0.329758"/>
<path d="M44.2552 140.889C68.6967 140.889 88.5105 122.11 88.5105 98.9448C88.5105 75.7793 68.6967 57 44.2552 57C19.8137 57 0 75.7793 0 98.9448C0 122.11 19.8137 140.889 44.2552 140.889Z" fill="#919F2B"/>
<path d="M44.745 57.0723C44.6848 57.0746 44.6246 57.077 44.5645 57.0795V140.969C44.6246 140.971 44.6848 140.974 44.745 140.976C56.4822 140.976 67.7387 136.557 76.0382 128.691C84.3377 120.825 89.0002 110.156 89.0002 99.0315C89.0002 87.907 84.3377 77.2382 76.0382 69.3721C67.7387 61.5059 56.4822 57.0867 44.745 57.0867V57.0723Z" fill="#6E7F2D"/>
<path d="M44.7349 72.6289L44.6396 160.168Z" fill="#1A1A1A"/>
<path d="M44.7349 72.6289L44.6396 160.168" stroke="#4C2121" stroke-width="1.09334"/>
<path d="M62.7179 87.6597L44.6611 109.965Z" fill="#1A1A1A"/>
<path d="M62.7179 87.6597L44.6611 109.965" stroke="#4C2121" stroke-width="0.329758"/>
<path d="M30.9844 91.6675L44.9686 102.81Z" fill="#1A1A1A"/>
<path d="M30.9844 91.6675L44.9686 102.81" stroke="#4C2121" stroke-width="0.409643"/>
<path d="M25.6953 111.709L44.704 130.097Z" fill="#1A1A1A"/>
<path d="M25.6953 111.709L44.704 130.097" stroke="#4C2121" stroke-width="0.329758"/>
<path d="M64.8347 112.711L47.5713 121.228Z" fill="#1A1A1A"/>
<path d="M64.8347 112.711L47.5713 121.228" stroke="#4C2121" stroke-width="0.329758"/>
</svg>
