<svg width="579" height="172" viewBox="0 0 579 172" fill="none" xmlns="http://www.w3.org/2000/svg">
<path d="M24.008 40.936C24.4347 40.4667 24.968 40.232 25.608 40.232C25.992 40.232 26.3333 40.36 26.632 40.616C26.9307 40.872 27.08 41.192 27.08 41.576C27.08 42.344 26.8027 43.0693 26.248 43.752C23.432 47.2507 19.5707 49 14.664 49C9.58668 49 5.89601 47.5707 3.59201 44.712C1.33068 41.8533 0.200012 37.9493 0.200012 33C0.200012 27.4107 1.58668 23.336 4.36001 20.776C7.13335 18.1733 10.8027 16.872 15.368 16.872C18.184 16.872 20.68 17.512 22.856 18.792C25.2027 20.2 26.376 21.8427 26.376 23.72C26.376 24.488 26.0987 25.1067 25.544 25.576C24.9893 26.0027 24.3707 26.216 23.688 26.216C22.7493 26.216 22.0027 26.0027 21.448 25.576C20.936 25.1067 20.5307 24.424 20.232 23.528C19.8053 22.2907 19.208 21.3093 18.44 20.584C17.7147 19.816 16.648 19.432 15.24 19.432C12.4667 19.432 10.4187 20.456 9.09601 22.504C7.77335 24.5093 7.11201 28.008 7.11201 33C7.11201 37.3947 7.73068 40.7013 8.96801 42.92C10.248 45.096 12.3813 46.184 15.368 46.184C17.3733 46.184 18.952 45.7787 20.104 44.968C21.256 44.1573 22.152 43.3467 22.792 42.536C23.432 41.6827 23.8373 41.1493 24.008 40.936Z" fill="#FF6600"/>
<path d="M32.279 45.992C33.7297 44.072 34.7963 41.6187 35.479 38.632C36.2043 35.6453 36.567 31.5067 36.567 26.216V19.88C36.567 18.856 36.759 18.1093 37.143 17.64C37.527 17.128 38.2097 16.872 39.191 16.872H55.127C56.1083 16.872 56.7697 17.128 57.111 17.64C57.495 18.1093 57.687 18.856 57.687 19.88V45.992H60.503C61.8683 45.992 62.551 46.6533 62.551 47.976V53.928C62.551 54.824 62.3803 55.4853 62.039 55.912C61.6977 56.3813 61.079 56.616 60.183 56.616C58.8177 56.616 57.879 56.3387 57.367 55.784C56.8977 55.272 56.663 54.184 56.663 52.52V49H34.263V52.52C34.263 54.184 34.007 55.272 33.495 55.784C33.0257 56.3387 32.1083 56.616 30.743 56.616C29.847 56.616 29.2283 56.3813 28.887 55.912C28.5457 55.4853 28.375 54.824 28.375 53.928V47.976C28.375 46.6533 29.0577 45.992 30.423 45.992H32.279ZM51.031 19.88H40.791V26.216C40.791 30.952 40.4923 34.8347 39.895 37.864C39.2977 40.8933 38.3377 43.6027 37.015 45.992H51.031V19.88Z" fill="#FF6600"/>
<path d="M91.34 40.936C91.7667 40.4667 92.3 40.232 92.94 40.232C93.324 40.232 93.6653 40.36 93.964 40.616C94.2627 40.872 94.412 41.192 94.412 41.576C94.412 42.344 94.1347 43.0693 93.58 43.752C90.764 47.2507 86.8387 49 81.804 49C76.812 49 73.036 47.656 70.476 44.968C67.9587 42.2373 66.7 38.4827 66.7 33.704C66.7 28.2427 67.98 24.0827 70.54 21.224C73.1 18.3227 76.812 16.872 81.676 16.872C85.5587 16.872 88.6733 17.9813 91.02 20.2C93.3667 22.4187 94.54 25.5973 94.54 29.736C94.54 31.8267 93.324 32.872 90.892 32.872H73.676C73.6333 33.2133 73.612 33.6827 73.612 34.28C73.612 37.9493 74.3373 40.8507 75.788 42.984C77.2387 45.1173 79.4787 46.184 82.508 46.184C84.556 46.184 86.1774 45.7573 87.372 44.904C88.5667 44.0507 89.484 43.24 90.124 42.472C90.764 41.6613 91.1693 41.1493 91.34 40.936ZM81.292 19.432C79.244 19.432 77.5587 20.3067 76.236 22.056C74.9133 23.8053 74.124 26.5147 73.868 30.184H85.836C86.604 30.184 87.1587 30.056 87.5 29.8C87.8413 29.5013 88.012 29.0107 88.012 28.328C88.012 25.4693 87.3293 23.272 85.964 21.736C84.6413 20.2 83.084 19.432 81.292 19.432Z" fill="#FF6600"/>
<path d="M127.22 45.992C127.22 47.016 127.028 47.784 126.644 48.296C126.303 48.7653 125.641 49 124.66 49C123.209 49 122.164 48.5947 121.524 47.784C120.884 46.9733 120.564 45.6293 120.564 43.752V19.88H110.324V26.6C110.324 30.6107 110.068 34.1093 109.556 37.096C109.044 40.04 108.127 42.536 106.804 44.584C105.865 46.0347 104.841 47.144 103.732 47.912C102.665 48.6373 101.385 49 99.892 49C99.0813 49 98.42 48.808 97.908 48.424C97.396 47.9973 97.14 47.3573 97.14 46.504C97.14 45.9493 97.396 45.3947 97.908 44.84C98.4627 44.2853 99.124 43.9227 99.892 43.752C101.769 43.3253 103.156 42.344 104.052 40.808C104.948 39.272 105.503 37.3947 105.716 35.176C105.972 32.9147 106.1 29.928 106.1 26.216V19.88C106.1 18.856 106.271 18.1093 106.612 17.64C106.996 17.128 107.721 16.872 108.788 16.872H124.66C125.641 16.872 126.303 17.128 126.644 17.64C127.028 18.1093 127.22 18.856 127.22 19.88V45.992Z" fill="#FF6600"/>
<path d="M155.993 42.92C154.585 45.0107 152.963 46.5467 151.129 47.528C149.337 48.5093 147.203 49 144.729 49C141.571 49 139.161 48.232 137.497 46.696C135.875 45.1173 135.065 43.0053 135.065 40.36C135.065 37.1173 136.259 34.4507 138.649 32.36C141.081 30.2267 145.262 29.16 151.193 29.16H155.865V27.368C155.865 24.4667 155.353 22.4187 154.329 21.224C153.347 20.0293 151.726 19.432 149.465 19.432C147.331 19.432 145.454 20.328 143.833 22.12C142.467 23.6133 141.166 24.36 139.929 24.36C139.203 24.36 138.649 24.168 138.265 23.784C137.881 23.3573 137.689 22.824 137.689 22.184C137.689 21.3733 137.987 20.6907 138.585 20.136C139.182 19.5813 140.057 19.0693 141.209 18.6C142.574 18.0453 144.11 17.6187 145.817 17.32C147.566 17.0213 149.209 16.872 150.745 16.872C153.817 16.872 156.206 17.2987 157.913 18.152C159.662 19.0053 160.878 20.264 161.561 21.928C162.243 23.592 162.585 25.768 162.585 28.456V45.992C162.585 47.016 162.414 47.784 162.073 48.296C161.731 48.7653 161.07 49 160.089 49C158.681 49 157.678 48.5307 157.081 47.592C156.483 46.6107 156.185 45.0747 156.185 42.984L155.993 42.92ZM152.217 31.848C145.219 31.848 141.721 34.3867 141.721 39.464C141.721 42.9627 143.577 44.712 147.289 44.712C148.441 44.712 149.678 44.4347 151.001 43.88C152.366 43.2827 153.518 42.4293 154.457 41.32C155.438 40.168 155.929 38.8027 155.929 37.224V31.848H152.217Z" fill="#FF6600"/>
<path d="M199.698 45.992C199.698 47.016 199.506 47.784 199.122 48.296C198.781 48.7653 198.119 49 197.138 49C195.687 49 194.642 48.5947 194.002 47.784C193.362 46.9733 193.042 45.6293 193.042 43.752V34.088H179.026V44.456C179.026 46.2907 178.706 47.5067 178.066 48.104C177.469 48.7013 176.423 49 174.93 49C173.949 49 173.266 48.7653 172.882 48.296C172.541 47.784 172.37 47.016 172.37 45.992V19.88C172.37 18.856 172.541 18.1093 172.882 17.64C173.266 17.128 173.949 16.872 174.93 16.872C176.381 16.872 177.426 17.2773 178.066 18.088C178.706 18.8987 179.026 20.2427 179.026 22.12V30.952H193.042V21.48C193.042 19.6453 193.341 18.4293 193.938 17.832C194.578 17.192 195.645 16.872 197.138 16.872C198.119 16.872 198.781 17.128 199.122 17.64C199.506 18.1093 199.698 18.856 199.698 19.88V45.992Z" fill="#FF6600"/>
<path d="M222.669 49C218.018 49 214.413 47.656 211.853 44.968C209.293 42.28 208.013 38.2693 208.013 32.936C208.013 27.5173 209.314 23.4853 211.917 20.84C214.519 18.1947 218.103 16.872 222.669 16.872C227.234 16.872 230.818 18.1947 233.421 20.84C236.023 23.4853 237.325 27.5173 237.325 32.936C237.325 38.2693 236.045 42.28 233.485 44.968C230.925 47.656 227.319 49 222.669 49ZM222.669 46.44C225.186 46.44 227.106 45.48 228.429 43.56C229.751 41.5973 230.413 38.056 230.413 32.936C230.413 27.9013 229.73 24.4027 228.365 22.44C226.999 20.4347 225.101 19.432 222.669 19.432C220.279 19.432 218.381 20.4347 216.973 22.44C215.607 24.4453 214.925 27.944 214.925 32.936C214.925 38.0133 215.586 41.5333 216.909 43.496C218.231 45.4587 220.151 46.44 222.669 46.44Z" fill="#FF6600"/>
<path d="M286.071 40.936C286.497 40.4667 287.031 40.232 287.671 40.232C288.055 40.232 288.396 40.36 288.695 40.616C288.993 40.872 289.143 41.192 289.143 41.576C289.143 42.344 288.865 43.0693 288.311 43.752C285.495 47.2507 281.633 49 276.727 49C271.649 49 267.959 47.5707 265.655 44.712C263.393 41.8533 262.263 37.9493 262.263 33C262.263 27.4107 263.649 23.336 266.423 20.776C269.196 18.1733 272.865 16.872 277.431 16.872C280.247 16.872 282.743 17.512 284.919 18.792C287.265 20.2 288.439 21.8427 288.439 23.72C288.439 24.488 288.161 25.1067 287.607 25.576C287.052 26.0027 286.433 26.216 285.751 26.216C284.812 26.216 284.065 26.0027 283.511 25.576C282.999 25.1067 282.593 24.424 282.295 23.528C281.868 22.2907 281.271 21.3093 280.503 20.584C279.777 19.816 278.711 19.432 277.303 19.432C274.529 19.432 272.481 20.456 271.159 22.504C269.836 24.5093 269.174 28.008 269.174 33C269.174 37.3947 269.793 40.7013 271.031 42.92C272.311 45.096 274.444 46.184 277.431 46.184C279.436 46.184 281.015 45.7787 282.167 44.968C283.319 44.1573 284.215 43.3467 284.855 42.536C285.495 41.6827 285.9 41.1493 286.071 40.936Z" fill="#FF6600"/>
<path d="M340.345 45.992C340.345 47.016 340.153 47.784 339.769 48.296C339.428 48.7653 338.766 49 337.785 49C336.334 49 335.289 48.5947 334.649 47.784C334.009 46.9733 333.689 45.6293 333.689 43.752V19.88H323.449V26.6C323.449 30.6107 323.193 34.1093 322.681 37.096C322.169 40.04 321.252 42.536 319.929 44.584C318.99 46.0347 317.966 47.144 316.857 47.912C315.79 48.6373 314.51 49 313.017 49C312.206 49 311.545 48.808 311.033 48.424C310.521 47.9973 310.265 47.3573 310.265 46.504C310.265 45.9493 310.521 45.3947 311.033 44.84C311.588 44.2853 312.249 43.9227 313.017 43.752C314.894 43.3253 316.281 42.344 317.177 40.808C318.073 39.272 318.628 37.3947 318.841 35.176C319.097 32.9147 319.225 29.928 319.225 26.216V19.88C319.225 18.856 319.396 18.1093 319.737 17.64C320.121 17.128 320.846 16.872 321.913 16.872H337.785C338.766 16.872 339.428 17.128 339.769 17.64C340.153 18.1093 340.345 18.856 340.345 19.88V45.992Z" fill="#FF6600"/>
<path d="M377.438 49.64C373 49.64 369.502 48.3173 366.942 45.672C364.382 42.984 363.016 39.1227 362.846 34.088H357.214V44.456C357.214 46.2907 356.894 47.5067 356.254 48.104C355.656 48.7013 354.611 49 353.118 49C352.136 49 351.454 48.7653 351.07 48.296C350.728 47.784 350.558 47.016 350.558 45.992V19.88C350.558 18.856 350.728 18.1093 351.07 17.64C351.454 17.128 352.136 16.872 353.118 16.872C354.568 16.872 355.614 17.2773 356.254 18.088C356.894 18.8987 357.214 20.2427 357.214 22.12V30.952H362.91C363.208 26.1307 364.638 22.4827 367.198 20.008C369.8 17.4907 373.214 16.232 377.438 16.232C381.96 16.232 385.523 17.6613 388.126 20.52C390.728 23.336 392.03 27.4747 392.03 32.936C392.03 38.3547 390.75 42.4933 388.19 45.352C385.63 48.2107 382.046 49.64 377.438 49.64ZM377.438 47.08C379.912 47.08 381.811 46.0133 383.134 43.88C384.456 41.7467 385.118 38.0987 385.118 32.936C385.118 23.5067 382.558 18.792 377.438 18.792C375.091 18.792 373.214 19.88 371.806 22.056C370.44 24.232 369.758 27.8587 369.758 32.936C369.758 38.056 370.419 41.704 371.742 43.88C373.107 46.0133 375.006 47.08 377.438 47.08Z" fill="#FF6600"/>
<path d="M428.082 32.936C428.082 38.2267 426.738 42.2373 424.05 44.968C421.362 47.656 417.821 49 413.426 49C408.775 49 405.17 47.592 402.61 44.776C400.05 41.96 398.77 37.1813 398.77 30.44C398.77 24.7227 399.218 20.0507 400.114 16.424C401.053 12.7547 402.503 9.896 404.466 7.848C406.471 5.75734 409.117 4.30667 412.402 3.496L416.178 2.536C418.183 2.06667 419.357 1.768 419.698 1.64C420.125 1.512 420.594 1.34134 421.106 1.128C422.471 0.616001 423.581 0.360001 424.434 0.360001C424.861 0.360001 425.223 0.488001 425.522 0.744003C425.863 0.957336 426.034 1.32 426.034 1.832C426.034 3.752 425.095 5.20267 423.218 6.184C421.341 7.12267 418.418 7.912 414.45 8.552C411.677 9.02133 409.458 9.87467 407.794 11.112C406.13 12.3493 404.893 14.12 404.082 16.424C403.314 18.728 402.93 21.7573 402.93 25.512H403.378C405.426 19.752 409.181 16.872 414.642 16.872C418.738 16.872 422.002 18.152 424.434 20.712C426.866 23.272 428.082 27.3467 428.082 32.936ZM405.618 32.936C405.618 37.4587 406.215 40.8507 407.41 43.112C408.605 45.3307 410.61 46.44 413.426 46.44C416.498 46.44 418.546 45.0747 419.57 42.344C420.637 39.5707 421.17 36.4347 421.17 32.936C421.17 29.9493 420.679 27.0907 419.698 24.36C418.717 21.5867 416.69 20.2 413.618 20.2C412.039 20.2 410.631 20.8187 409.394 22.056C408.199 23.2507 407.261 24.8293 406.578 26.792C405.938 28.7547 405.618 30.8027 405.618 32.936Z" fill="#FF6600"/>
<path d="M449.169 49C444.518 49 440.913 47.656 438.353 44.968C435.793 42.28 434.513 38.2693 434.513 32.936C434.513 27.5173 435.814 23.4853 438.417 20.84C441.019 18.1947 444.603 16.872 449.169 16.872C453.734 16.872 457.318 18.1947 459.921 20.84C462.523 23.4853 463.825 27.5173 463.825 32.936C463.825 38.2693 462.545 42.28 459.985 44.968C457.425 47.656 453.819 49 449.169 49ZM449.169 46.44C451.686 46.44 453.606 45.48 454.929 43.56C456.251 41.5973 456.913 38.056 456.913 32.936C456.913 27.9013 456.23 24.4027 454.865 22.44C453.499 20.4347 451.601 19.432 449.169 19.432C446.779 19.432 444.881 20.4347 443.473 22.44C442.107 24.4453 441.424 27.944 441.424 32.936C441.424 38.0133 442.086 41.5333 443.409 43.496C444.731 45.4587 446.651 46.44 449.169 46.44Z" fill="#FF6600"/>
<path d="M472.12 19.88C472.12 18.856 472.291 18.1093 472.632 17.64C473.016 17.128 473.699 16.872 474.68 16.872H485.56C488.632 16.872 491.235 17.4907 493.368 18.728C495.544 19.9653 496.632 21.9067 496.632 24.552C496.632 26.4293 496.035 28.0507 494.84 29.416C493.688 30.7387 492.067 31.5707 489.976 31.912V32.296C492.408 32.3813 494.328 33.128 495.736 34.536C497.187 35.9013 497.912 37.5653 497.912 39.528C497.912 42.9413 496.568 45.3733 493.88 46.824C491.235 48.2747 488.205 49 484.792 49H474.68C473.699 49 473.016 48.7653 472.632 48.296C472.291 47.784 472.12 47.016 472.12 45.992V19.88ZM484.152 31.08C485.816 31.08 487.181 30.6107 488.248 29.672C489.357 28.6907 489.912 27.1973 489.912 25.192C489.912 23.4853 489.357 22.1627 488.248 21.224C487.181 20.2427 485.709 19.752 483.832 19.752H478.648V31.08H484.152ZM484.024 46.12C486.413 46.12 488.163 45.5013 489.272 44.264C490.424 43.0267 491 41.5547 491 39.848C491 37.928 490.403 36.4347 489.208 35.368C488.013 34.3013 486.243 33.768 483.896 33.768H478.648V46.12H484.024Z" fill="#FF6600"/>
<path d="M517.916 30.504C522.14 30.504 525.19 31.2507 527.068 32.744C528.945 34.1947 529.883 36.3707 529.883 39.272C529.883 42.4293 528.689 44.84 526.299 46.504C523.91 48.168 520.518 49 516.124 49H507.868C506.886 49 506.204 48.7653 505.82 48.296C505.478 47.784 505.308 47.016 505.308 45.992V19.88C505.308 18.856 505.478 18.1093 505.82 17.64C506.204 17.128 506.886 16.872 507.868 16.872C509.318 16.872 510.364 17.2773 511.004 18.088C511.644 18.8987 511.964 20.2427 511.964 22.12V30.504H517.916ZM515.867 46.12C518.257 46.12 520.028 45.608 521.18 44.584C522.374 43.56 522.971 41.8747 522.971 39.528C522.971 37.1813 522.353 35.5813 521.116 34.728C519.921 33.832 518.171 33.384 515.867 33.384H511.9V46.12H515.867Z" fill="#FF6600"/>
<path d="M563.688 49.64C559.25 49.64 555.752 48.3173 553.192 45.672C550.632 42.984 549.266 39.1227 549.096 34.088H543.464V44.456C543.464 46.2907 543.144 47.5067 542.504 48.104C541.906 48.7013 540.861 49 539.367 49C538.386 49 537.704 48.7653 537.32 48.296C536.978 47.784 536.807 47.016 536.807 45.992V19.88C536.807 18.856 536.978 18.1093 537.32 17.64C537.704 17.128 538.386 16.872 539.367 16.872C540.818 16.872 541.864 17.2773 542.504 18.088C543.144 18.8987 543.464 20.2427 543.464 22.12V30.952H549.159C549.458 26.1307 550.888 22.4827 553.448 20.008C556.05 17.4907 559.464 16.232 563.688 16.232C568.21 16.232 571.773 17.6613 574.375 20.52C576.978 23.336 578.28 27.4747 578.28 32.936C578.28 38.3547 577 42.4933 574.44 45.352C571.88 48.2107 568.296 49.64 563.688 49.64ZM563.688 47.08C566.162 47.08 568.061 46.0133 569.384 43.88C570.706 41.7467 571.367 38.0987 571.367 32.936C571.367 23.5067 568.808 18.792 563.688 18.792C561.341 18.792 559.464 19.88 558.056 22.056C556.69 24.232 556.008 27.8587 556.008 32.936C556.008 38.056 556.669 41.704 557.992 43.88C559.357 46.0133 561.256 47.08 563.688 47.08Z" fill="#FF6600"/>
<path d="M60.6517 85.9413L90.6499 58.9942C91.9448 57.7941 93.2629 57.2368 94.6042 57.3223C95.5623 57.3833 96.3403 57.7536 96.9383 58.433C97.6002 59.1164 97.9067 59.8414 97.8579 60.6078C97.8294 61.0549 97.6453 61.428 97.3056 61.727L68.2795 87.0045L93.9365 119.133C94.7656 120.212 95.1537 121.166 95.1008 121.997C95.0397 122.955 94.6036 123.761 93.7924 124.414C93.045 125.072 92.0965 125.365 90.9469 125.291C89.4778 125.198 88.093 124.789 86.7924 124.065C85.5557 123.345 84.1661 122.005 82.6235 120.047L60.316 91.2106L58.304 91.0824L56.662 116.854C56.5195 119.09 55.9388 120.656 54.9197 121.553C53.9006 122.45 52.3691 122.833 50.3252 122.703C48.8562 122.609 47.7629 122.155 47.0453 121.34C46.3915 120.529 46.1176 119.293 46.2234 117.632L49.9409 59.2863C50.0508 57.5618 50.4475 56.3686 51.131 55.7067C51.8185 54.9809 52.9287 54.6669 54.4616 54.7646C56.4416 54.8907 57.9019 55.6251 58.8424 56.9676C59.8509 58.2503 60.2778 60.1052 60.1231 62.5323L58.6398 85.8131L60.6517 85.9413Z" fill="#64BED8"/>
<path d="M189.532 68.469C191.025 65.1653 192.985 63.5907 195.412 63.7454C196.306 63.8024 196.988 64.1665 197.459 64.8377C197.997 65.4492 198.238 66.202 198.181 67.0962C198.132 67.8626 197.927 68.5551 197.567 69.1734L177.08 109.905C174.291 115.435 170.913 120.126 166.948 123.977C163.047 127.833 158.766 129.612 154.103 129.315C152.634 129.222 151.479 128.731 150.638 127.844C149.864 126.897 149.535 125.529 149.648 123.741C149.73 122.463 150.234 121.598 151.161 121.144C152.087 120.69 153.806 120.382 156.318 120.222C159.208 120.149 161.596 119.404 163.482 117.985C165.369 116.566 167.014 114.394 168.419 111.47L147.526 66.466C147.188 65.739 147.047 64.9284 147.104 64.0342C147.165 63.0761 147.535 62.2981 148.215 61.7001C148.894 61.1021 149.745 60.8356 150.767 60.9007C152.427 61.0066 153.778 61.4453 154.819 62.2171C155.924 62.9929 156.926 64.3714 157.826 66.3527L173.689 101.224L174.264 101.261L189.532 68.469Z" fill="#64BED8"/>
<path d="M292.765 86.6862C290.913 86.5682 289.538 85.9996 288.641 84.9805C287.808 83.9655 287.462 82.3402 287.605 80.1048L287.947 74.7396L264.474 73.2441L263.009 96.2374L276.901 97.1226C284.502 97.6069 290.248 99.5121 294.141 102.838C298.033 106.165 299.757 111.309 299.314 118.271C298.992 123.316 297.424 127.289 294.61 130.188C291.8 133.023 288.537 134.931 284.819 135.913C281.105 136.83 277.555 137.181 274.17 136.966L254.53 135.714C253.061 135.621 251.968 135.166 251.25 134.351C250.596 133.54 250.322 132.304 250.428 130.643L254.146 72.2974C254.251 70.6368 254.68 69.4456 255.431 68.7239C256.247 68.0063 257.389 67.6943 258.858 67.7879L292.198 69.9122C294.178 70.0384 295.599 70.3854 296.461 70.9534C297.386 71.5254 297.806 72.482 297.721 73.8233L297.19 82.1584C297.084 83.819 296.655 85.0102 295.904 85.7319C295.216 86.4576 294.17 86.7757 292.765 86.6862ZM260.793 131.015L273.248 131.809C277.016 132.049 280.415 131.047 283.444 128.803C286.473 126.559 288.154 122.818 288.488 117.581C289.106 107.872 284.497 102.705 274.661 102.078L262.686 101.315L260.793 131.015Z" fill="#64BED8"/>
<path d="M406.828 77.216C408.297 77.3096 409.359 77.762 410.012 78.5732C410.73 79.3885 411.036 80.6265 410.93 82.2871L407.213 140.633C407.103 142.357 406.704 143.582 406.016 144.308C405.333 144.97 404.225 145.252 402.692 145.154C400.712 145.028 399.218 144.324 398.209 143.041C397.269 141.699 396.876 139.814 397.03 137.387L400.04 90.1545L365.733 139.433C365.093 140.418 364.338 141.204 363.467 141.789C362.6 142.311 361.304 142.517 359.579 142.408C358.11 142.314 357.017 141.859 356.299 141.044C355.646 140.233 355.372 138.997 355.478 137.336L359.195 78.9907C359.305 77.2662 359.702 76.073 360.385 75.4112C361.073 74.6854 362.183 74.3714 363.716 74.469C365.696 74.5952 367.156 75.3295 368.097 76.6721C369.105 77.9548 369.532 79.8097 369.377 82.2368L366.368 129.469L400.675 80.1907C401.451 79.0858 402.238 78.3023 403.037 77.8402C403.84 77.3142 405.104 77.1061 406.828 77.216Z" fill="#64BED8"/>
<path d="M496.3 145.347C496.161 147.519 495.587 148.989 494.576 149.758C493.629 150.532 492.101 150.851 489.993 150.717C488.524 150.623 487.431 150.169 486.713 149.354C486.06 148.542 485.786 147.307 485.892 145.646L489.591 87.5876L475.22 86.672L474.787 93.4742C474.644 95.7096 474.063 97.2759 473.044 98.1729C472.089 99.074 470.685 99.4655 468.833 99.3475C467.428 99.258 466.398 98.8076 465.745 97.9964C465.155 97.1892 464.913 95.9553 465.019 94.2947L465.641 84.5225C465.727 83.1813 466.233 82.2836 467.16 81.8296C468.15 81.3797 469.635 81.2178 471.615 81.344L518.56 84.3351C520.54 84.4613 521.961 84.8083 522.823 85.3763C523.748 85.9483 524.168 86.9049 524.083 88.2462L523.46 98.0184C523.354 99.679 522.926 100.87 522.174 101.592C521.487 102.318 520.44 102.636 519.035 102.546C517.183 102.428 515.808 101.86 514.911 100.841C514.078 99.8255 513.733 98.2002 513.875 95.9648L514.309 89.1626L499.938 88.2469L496.3 145.347Z" fill="#64BED8"/>
<path d="M514.353 164.094C515.064 164.368 515.646 164.582 516.098 164.735L512.718 165.875C509.837 165.384 507.056 165.025 504.377 164.797C501.573 164.624 498.543 164.374 495.288 164.048L493.27 163.704L493.831 163.457C489.76 163.373 485.373 163.312 480.669 163.273C475.965 163.234 471.946 162.892 468.613 162.247L467.305 162.825C466.027 162.684 464.784 162.586 463.574 162.533C462.048 162.501 460.804 162.404 459.843 162.24C458.883 162.076 458.205 161.846 457.81 161.55C454.903 161.894 452.053 162.094 449.259 162.152C446.274 162.177 443.159 162.142 439.914 162.047L439.727 162.129L440.186 161.75L435.692 161.441L435.895 161.705L427.889 161.713C423.886 161.717 419.945 161.694 416.066 161.643C412.188 161.592 409.831 161.457 408.995 161.239L409.112 161.716C407.076 161.674 405.262 161.594 403.668 161.475C401.757 161.378 399.875 161.21 398.021 160.97L396.152 161.796C393.971 161.348 391.552 161.24 388.894 161.474C385.919 161.729 383.307 161.589 381.059 161.054L378.614 161.781L377.056 161.058L375.732 161.29L364.673 161.235L363.551 161.731L356.495 161.672L356.464 160.98L354.969 161.641L349.813 161.449L350.358 160.855L347.539 161.747L345.234 161.354C343.853 161.729 342.461 161.874 341.06 161.787C339.658 161.701 338.38 161.559 337.228 161.363L335.787 161.117L336.106 161.858L331.153 161.929L328.271 161.438L325.047 161.804C322.944 161.674 319.479 161.617 314.65 161.633C309.821 161.649 305.281 161.715 301.029 161.829C296.584 161.91 294.238 162.006 293.989 162.116L289.393 161.676L283.607 162.292C283.529 161.973 282.981 161.804 281.964 161.783C280.821 161.817 280.001 161.944 279.503 162.164L279.316 162.247L275.11 161.988L271.801 162.568L265.967 162.145L264.558 162.592L260.811 161.953L260.368 162.678C258.208 162.692 256.11 162.677 254.075 162.636C251.915 162.649 249.812 162.519 247.766 162.247L245.22 162.842C243.761 162.899 242.263 162.796 240.726 162.534C239.415 162.311 238.224 162.034 237.155 161.703C236.029 161.747 234.906 161.789 233.788 161.828C229.91 161.963 227.489 161.944 226.526 161.77L226.934 162.231C224.89 162.288 223.04 162.296 221.387 162.255C219.432 162.251 217.462 162.177 215.477 162.031L214.128 162.928C211.691 162.594 209.225 162.604 206.731 162.959C203.936 163.352 201.26 163.339 198.703 162.922L196.721 163.751L194.735 163.117L193.563 163.408L182.56 163.882L181.75 164.421L174.715 164.701L174.262 164.025L173.182 164.743L167.95 164.801L168.129 164.194L165.877 165.202L163.351 164.927C162.209 165.36 160.917 165.568 159.474 165.55C158.031 165.532 156.677 165.455 155.414 165.318L153.835 165.146L154.604 165.856L149.734 166.162L146.576 165.819L143.601 166.331C141.436 166.304 137.964 166.414 133.184 166.66C128.404 166.907 123.94 167.187 119.792 167.502C115.433 167.794 113.164 168 112.984 168.12L108.157 167.908L102.793 168.787C102.521 168.479 101.874 168.339 100.852 168.367C99.74 168.455 99.0039 168.619 98.644 168.858L98.509 168.948L94.1791 168.895L91.25 169.621L85.206 169.486L84.0802 169.99L79.9744 169.544L79.9771 170.275C77.8427 170.391 75.7532 170.477 73.7089 170.534C71.5745 170.65 69.4095 170.623 67.214 170.454L65.0516 171.159C63.6389 171.284 62.0903 171.255 60.4058 171.072C57.8792 170.797 55.6225 170.343 53.6358 169.709C51.4385 169.053 49.8126 168.424 48.7581 167.822C47.4931 167.197 46.9505 166.825 47.1305 166.706C47.971 166.31 49.2929 166.001 51.0961 165.779C52.6889 165.535 54.2518 165.391 55.7851 165.349C54.0718 165.511 54.2977 165.605 56.4626 165.632L59.5751 165.761C60.5956 165.245 62.9243 164.837 66.5615 164.536C69.898 164.273 73.5504 164.043 77.5187 163.848C81.1864 163.69 83.9821 163.541 85.906 163.402C86.1471 163.567 86.7788 163.636 87.801 163.608C88.8231 163.58 89.5143 163.446 89.8742 163.207L90.0092 163.117C89.7986 163.094 89.7384 163.053 89.8283 162.993L96.8173 162.5L98.1265 162.851L98.0348 162.423C101.823 162.348 105.581 162.129 109.308 161.769C111.113 162.035 113.203 162.192 115.579 162.241L116.928 161.344L125.542 161.236L126.352 160.698L129.419 160.613L129.017 161.614L131.854 160.46L137.809 160.899C138.079 160.719 139.581 160.534 142.317 160.344C145.052 160.155 147.743 159.994 150.388 159.864C153.034 159.734 154.823 159.685 155.755 159.717C156.176 159.762 156.432 159.755 156.522 159.696C156.401 159.613 156.235 159.56 156.025 159.537L162.066 158.941C163.15 159.198 164.037 159.259 164.728 159.126C165.419 158.992 165.975 158.948 166.396 158.994L166.712 159.028C166.622 159.088 166.637 159.159 166.758 159.242L170.003 158.55L174.964 158.672C174.604 158.911 174.891 159.047 175.823 159.078C176.544 159.087 176.89 159.02 176.859 158.878L175.234 158.493L175.504 158.313L177.761 158.767L180.104 158.186L181.999 158.392C184.735 158.202 187.576 158.024 190.522 157.857C193.468 157.69 196.429 157.594 199.406 157.569L199.675 157.39L200.399 157.886L205.809 157.221L207.93 157.765L211.31 156.984C215.16 157.193 218.858 157.178 222.405 156.937C221.685 157.415 221.731 157.629 222.543 157.578C223.354 157.527 223.699 157.216 223.577 156.646L228.854 156.802L230.206 156.636C232.161 156.639 234.972 156.562 238.64 156.404C242.217 156.305 245.75 156.237 249.238 156.198C250.829 156.197 252.195 156.224 253.336 156.279C254.654 156.25 256.012 156.228 257.408 156.212C258.163 156.168 259.243 156.159 260.648 156.185C260.697 156.186 260.746 156.187 260.795 156.188C261.155 156.187 261.518 156.186 261.883 156.186C263.78 156.195 265.449 156.196 266.891 156.188L267.232 155.961L267.213 156.186C267.632 156.184 268.031 156.18 268.409 156.176L269.532 155.898C271.193 155.954 272.831 155.999 274.447 156.033C274.355 156.004 274.357 155.968 274.453 155.926L281.595 155.77L282.465 156.105C282.541 156.105 282.617 156.104 282.692 156.104L282.833 155.752C286.587 155.858 290.398 155.821 294.266 155.641C295.202 155.845 296.255 156.017 297.425 156.158C298.402 156.194 299.39 156.238 300.388 156.289L301.984 155.584L310.481 155.888L311.602 155.393L314.655 155.455L313.651 156.428L317.132 155.42L322.693 156.139C323.066 155.974 324.65 155.862 327.443 155.804C330.236 155.747 332.967 155.716 335.636 155.714C338.305 155.711 340.086 155.747 340.979 155.823C341.363 155.889 341.617 155.894 341.742 155.839C341.674 155.751 341.545 155.691 341.353 155.658L347.63 155.355C348.533 155.662 349.364 155.765 350.122 155.665C350.88 155.566 351.451 155.549 351.835 155.614L352.123 155.663C351.999 155.718 351.97 155.79 352.038 155.878L355.636 155.347L360.418 155.704C359.919 155.924 360.117 156.072 361.01 156.148C361.711 156.192 362.09 156.142 362.147 155.999L360.792 155.539L361.165 155.374L363.097 155.932L365.745 155.468L367.474 155.763C370.267 155.705 373.156 155.663 376.142 155.638C379.127 155.613 382.084 155.66 385.013 155.777L385.386 155.612L385.792 156.139L391.492 155.738L393.237 156.378L397.022 155.765C400.662 156.157 404.291 156.317 407.91 156.248C406.913 156.688 406.827 156.902 407.653 156.891C408.478 156.879 409.005 156.587 409.234 156.016L414.304 156.422L415.729 156.322C417.64 156.419 420.438 156.476 424.125 156.495C427.686 156.568 431.186 156.668 434.623 156.797C437.744 156.947 439.914 157.165 441.134 157.449C441.248 157.163 442.803 157.123 445.799 157.329C448.795 157.534 450.802 157.647 451.819 157.668L452.38 157.421L452.022 157.932L454.67 157.468C460.921 157.999 466.942 158.339 472.731 158.487C478.395 158.69 484.296 159.2 490.434 160.017L494.522 159.799C495.483 159.962 495.652 160.182 495.029 160.457C496.498 160.631 497.996 160.734 499.523 160.765C501.049 160.797 502.643 160.916 504.305 161.123L503.184 161.618C503.443 161.739 504.303 161.771 505.762 161.714C507.413 161.691 508.459 161.64 508.9 161.563L512.577 162.762L512.421 163.536C513.19 163.667 513.834 163.853 514.353 164.094Z" fill="#64BED8"/>
</svg>
