<svg width="2654" height="680" viewBox="0 0 2654 680" fill="none" xmlns="http://www.w3.org/2000/svg">
<path d="M2290.87 228.68V248.814C2367.63 250.492 2413.35 282.79 2413.35 339.836C2413.35 396.883 2367.63 426.665 2290.87 428.342V448.476H2230.05V428.342C2153.7 426.665 2107.98 396.883 2107.98 339.836C2107.98 282.79 2153.7 250.492 2230.05 248.814V228.68H2290.87ZM2230.05 385.557V292.018C2188.1 293.696 2169.64 312.991 2169.64 339.836C2169.64 366.682 2188.1 383.88 2230.05 385.557ZM2290.87 292.018V385.557C2333.23 383.88 2351.27 366.682 2351.27 339.836C2351.27 312.991 2333.23 293.696 2290.87 292.018Z" fill="#333333"/>
<path d="M1966.03 228.68V248.814C2042.79 250.492 2088.51 282.79 2088.51 339.836C2088.51 396.883 2042.79 426.665 1966.03 428.342V448.476H1905.21V428.342C1828.87 426.665 1783.15 396.883 1783.15 339.836C1783.15 282.79 1828.87 250.492 1905.21 248.814V228.68H1966.03ZM1905.21 385.557V292.018C1863.27 293.696 1844.81 312.991 1844.81 339.836C1844.81 366.682 1863.27 383.88 1905.21 385.557ZM1966.03 292.018V385.557C2008.4 383.88 2026.43 366.682 2026.43 339.836C2026.43 312.991 2008.4 293.696 1966.03 292.018Z" fill="#333333"/>
<path d="M1633.02 234.553C1714.4 234.553 1763.48 280.693 1763.48 340.256C1763.48 399.82 1714.4 445.96 1633.02 445.96C1551.23 445.96 1502.15 399.82 1502.15 340.256C1502.15 280.693 1551.23 234.553 1633.02 234.553ZM1633.02 397.303C1673.29 397.303 1699.72 372.974 1699.72 340.256C1699.72 307.539 1673.29 283.629 1633.02 283.629C1592.34 283.629 1566.33 307.539 1566.33 340.256C1566.33 372.974 1592.34 397.303 1633.02 397.303Z" fill="#333333"/>
<path d="M1354.35 364.166H1337.57V439.668H1276.75V240.006H1337.57V315.089H1354.35L1427.76 240.006H1504.1L1406.79 335.643L1507.88 439.668H1426.92L1354.35 364.166Z" fill="#333333"/>
<path d="M1155.12 439.668H1031.79V240.006H1092.62V293.697H1155.12C1170.22 293.697 1186.16 294.116 1199.58 299.15C1227.68 309.636 1245.3 332.706 1245.3 365.844C1245.3 400.659 1224.75 426.246 1193.29 435.054C1181.54 438.41 1168.96 439.668 1155.12 439.668ZM1144.63 340.676H1092.62V391.431H1144.63C1155.12 391.431 1161.83 391.431 1168.54 388.494C1178.19 384.3 1184.06 375.491 1184.06 365.005C1184.06 354.938 1178.19 346.549 1168.12 343.193C1160.99 340.676 1153.02 340.676 1144.63 340.676Z" fill="#333333"/>
<path d="M924.911 365.424H827.177V439.668H766.355V240.006H827.177V312.992H924.911V240.006H985.732V439.668H924.911V365.424Z" fill="#333333"/>
<path d="M561.74 356.196L666.604 240.006H720.295V439.668H659.474V323.478L554.609 439.668H500.918V240.006H561.74V356.196Z" fill="#333333"/>
<path d="M389.328 439.668H326.409V293.277H240V240.006H475.736V293.277H389.328V439.668Z" fill="#333333"/>
</svg>
