<svg width="152" height="34" viewBox="0 0 152 34" fill="none" xmlns="http://www.w3.org/2000/svg">
<g clip-path="url(#clip0_15196_73894)">
<path d="M0 5H26V18.2411C26 21.6365 24.1911 24.7669 21.25 26.471L13 31.3307L4.75871 26.471C1.81765 24.7796 0.0126224 21.6365 0.0126224 18.2411V5H0Z" fill="#FFDD2D"/>
<path fill-rule="evenodd" clip-rule="evenodd" d="M7 11.9677V16.0826C7.56802 15.4515 8.59044 15.0223 9.75172 15.0223H11.0266V19.8063C11.0266 21.0811 10.6858 22.1919 10.1683 22.8104H15.83C15.3125 22.1919 15 21.0811 15 19.8063V15.0223H16.24C17.4139 15.0223 18.4446 15.4515 19 16.0826V11.9677H7Z" fill="#333333"/>
<path d="M145 11.3799H142V12.4888C137.797 12.5793 135 14.3593 135 17.5006C135 20.6418 137.797 22.2839 142 22.3743V23.4833H145V22.3743C149.226 22.2839 152.014 20.6418 152.014 17.5006C152.014 14.3593 149.226 12.5793 145 12.4888V11.3799ZM142 20.0184C139.692 19.9279 138.39 18.9808 138.39 17.5006C138.39 16.0204 139.687 14.959 142 14.8686V20.0184ZM145 14.8686C147.332 14.959 148.597 16.0251 148.597 17.5006C148.597 18.976 147.332 19.9279 145 20.0184V14.8686Z" fill="#333333"/>
<path d="M127 11.3799H124V12.4888C119.797 12.5793 117 14.3593 117 17.5006C117 20.6418 119.797 22.2839 124 22.3743V23.4833H127V22.3743C131.226 22.2839 134.014 20.6418 134.014 17.5006C134.014 14.3593 131.226 12.5793 127 12.4888V11.3799ZM124 20.0184C121.692 19.9279 120.39 18.9808 120.39 17.5006C120.39 16.0204 121.687 14.959 124 14.8686V20.0184ZM127 14.8686C129.332 14.959 130.597 16.0251 130.597 17.5006C130.597 18.976 129.332 19.9279 127 20.0184V14.8686Z" fill="#333333"/>
<path d="M108.825 11.7035C104.323 11.7035 101.619 14.2451 101.619 17.5243C101.619 20.8036 104.323 23.3452 108.825 23.3452C113.327 23.3452 116.007 20.8036 116.007 17.5243C116.007 14.2451 113.304 11.7035 108.825 11.7035ZM108.825 20.6656C106.583 20.6656 105.151 19.3282 105.151 17.5243C105.151 15.7205 106.583 14.4069 108.825 14.4069C111.067 14.4069 112.499 15.7253 112.499 17.5243C112.499 19.3234 111.043 20.6656 108.825 20.6656Z" fill="#333333"/>
<path d="M93.2693 18.8428L97.2672 23.0026H101.727L96.1583 17.2769L101.517 12.0129H97.3148L93.274 16.1489H92.3507V12.0129H89V23.0074H92.3507V18.8476H93.274L93.2693 18.8428Z" fill="#333333"/>
<path d="M82.787 22.9977C83.5485 22.9977 84.2434 22.9263 84.8907 22.7455C86.6232 22.26 87.7559 20.8512 87.7559 18.9331C87.7559 17.015 86.785 15.8394 85.2382 15.2588C84.5004 14.9827 83.6199 14.9589 82.7918 14.9589H79.3507V12.0033H76V22.9977H82.7918H82.787ZM82.2111 17.5481C82.6728 17.5481 83.1107 17.5481 83.5057 17.6861C84.0578 17.8717 84.3815 18.3334 84.3815 18.8855C84.3815 19.4376 84.0578 19.9469 83.5247 20.1801C83.1535 20.3419 82.787 20.3419 82.2064 20.3419H79.3412V17.5481H82.2064H82.2111Z" fill="#333333"/>
<path d="M70.65 18.9121V23.0005H74V12.0061H70.65V16.3567H65.3507V12.0061H62V23.0005H65.3507V18.9121H70.65Z" fill="#333333"/>
<path d="M51.3507 18.4002V12.0034H48V22.9978H50.9556L56.65 16.6011V22.9978H60V12.0034H57.04L51.3507 18.4002Z" fill="#333333"/>
<path d="M42.3 23.0004V15H47V12H34V15H38.7V23.0004H42.3Z" fill="#333333"/>
</g>
<defs>
<clipPath id="clip0_15196_73894">
<rect width="152" height="34" fill="white"/>
</clipPath>
</defs>
</svg>
