<?xml version="1.0" encoding="iso-8859-1"?>
<!-- Generator: Adobe Illustrator 19.0.0, SVG Export Plug-In . SVG Version: 6.00 Build 0)  -->
<svg version="1.1" id="Layer_1" xmlns="http://www.w3.org/2000/svg" xmlns:xlink="http://www.w3.org/1999/xlink" x="0px" y="0px"
	 viewBox="0 0 511.999 511.999" style="enable-background:new 0 0 511.999 511.999;" xml:space="preserve">
<g>
	<g>
		<path d="M388.371,152.087c-11.455-19.783-32.76-32.072-55.602-32.072c-22.848,0-44.156,12.295-55.61,32.087
			c-4.908,8.48-2.011,19.336,6.47,24.242c2.799,1.619,5.854,2.391,8.87,2.391c6.126,0,12.086-3.177,15.374-8.86
			c5.13-8.866,14.67-14.373,24.895-14.373c10.223,0,19.76,5.505,24.892,14.367c4.91,8.479,15.767,11.371,24.246,6.464
			C390.386,171.423,393.281,160.568,388.371,152.087z"/>
	</g>
</g>
<g>
	<g>
		<path d="M234.837,152.087c-11.455-19.783-32.76-32.072-55.602-32.072c-22.848,0-44.156,12.295-55.61,32.087
			c-4.908,8.481-2.011,19.337,6.47,24.243c2.799,1.618,5.854,2.389,8.87,2.389c6.126,0,12.086-3.177,15.374-8.86
			c5.13-8.866,14.67-14.373,24.895-14.373c10.223,0,19.76,5.505,24.892,14.367c4.91,8.48,15.767,11.373,24.247,6.463
			C236.854,171.422,239.749,160.567,234.837,152.087z"/>
	</g>
</g>
<g>
	<g>
		<path d="M479.816,190.56h-10.146v-88.264C469.671,45.889,423.781,0,367.374,0h-222.75C88.218,0,42.328,45.89,42.328,102.296
			v88.263H32.182c-9.799,0-17.743,7.944-17.743,17.743s7.944,17.743,17.743,17.743h10.146v72.282
			c0,117.819,95.853,213.671,213.671,213.671s213.671-95.852,213.671-213.671v-72.282h10.146c9.799,0,17.743-7.944,17.743-17.743
			S489.617,190.56,479.816,190.56z M434.185,298.329c0,98.252-79.934,178.185-178.185,178.185S77.815,396.581,77.815,298.329
			V102.296c0-36.84,29.971-66.81,66.81-66.81h222.751c36.839,0,66.81,29.971,66.81,66.81V298.329z"/>
	</g>
</g>
<g>
	<g>
		<path d="M347.576,282.281c-9.799,0-17.743,7.944-17.743,17.743c0,40.017-32.557,72.575-72.574,72.575h-2.518
			c-40.018-0.001-72.574-32.558-72.574-72.575c0-9.799-7.944-17.743-17.743-17.743s-17.743,7.944-17.743,17.743
			c0,59.585,48.475,108.062,108.061,108.062h2.518c59.585,0,108.061-48.476,108.061-108.062
			C365.32,290.226,357.375,282.281,347.576,282.281z"/>
	</g>
</g>
<g>
</g>
<g>
</g>
<g>
</g>
<g>
</g>
<g>
</g>
<g>
</g>
<g>
</g>
<g>
</g>
<g>
</g>
<g>
</g>
<g>
</g>
<g>
</g>
<g>
</g>
<g>
</g>
<g>
</g>
</svg>
