<?xml version="1.0" encoding="iso-8859-1"?>
<!-- Generator: Adobe Illustrator 19.0.0, SVG Export Plug-In . SVG Version: 6.00 Build 0)  -->
<svg version="1.1" id="Layer_1"
	xmlns="http://www.w3.org/2000/svg"
	xmlns:xlink="http://www.w3.org/1999/xlink" x="0px" y="0px" viewBox="0 0 290.138 290.138" style="enable-background:new 0 0 290.138 290.138;" xml:space="preserve">
	<g>
		<path d="M282.568,24.849l-89.941-24.27c-0.3-0.082-0.61-0.082-0.915-0.136c-0.082-0.016-0.163-0.022-0.245-0.038
			c-0.556-0.082-1.101-0.142-1.656-0.136c-0.556-0.005-1.101,0.054-1.656,0.136c-0.082,0.016-0.163,0.022-0.245,0.038
			c-0.305,0.054-0.61,0.054-0.915,0.136l-87.05,23.49L12.892,0.579C9.819-0.244,6.533,0.394,4.01,2.333C1.482,4.262,0,7.27,0,10.452
			v244.965c0,4.621,3.1,8.669,7.563,9.874l88.502,23.883c0.441,0.169,0.894,0.256,1.357,0.365l0.093,0.022
			c0.098,0.027,0.202,0.016,0.305,0.038c0.632,0.12,1.259,0.311,1.907,0.311c0.076,0,0.153-0.027,0.229-0.033
			c0.076,0,0.153,0.033,0.229,0.033c0.648,0,1.27-0.191,1.907-0.311c0.098-0.022,0.202-0.011,0.305-0.038l0.093-0.022
			c0.463-0.109,0.91-0.196,1.357-0.365l85.985-23.202l39.614,10.691c6.501,1.755,12.892-3.144,12.892-9.874
			c0-4.621-3.1-8.669-7.563-9.874l-34.568-9.329V23.802l69.475,18.755v160.434v8.359v59.672c0,5.651,4.577,10.228,10.228,10.228
			s10.228-4.577,10.228-10.228v-59.677v-8.359V34.722C290.137,30.101,287.031,26.053,282.568,24.849z M89.494,266.211l-69.039-18.63
			V23.802l69.039,18.63V266.211z M179.435,247.581l-69.039,18.63V42.433l69.039-18.63V247.581z"/>
	</g>
</svg>
