<svg width="24px" height="24px" viewBox="0 0 24 24" id="Layer_1" data-name="Layer 1"
    xmlns="http://www.w3.org/2000/svg"
    xmlns:xlink="http://www.w3.org/1999/xlink">

    <g >
        <path d="M2.43,22.12a1.07,1.07,0,0,1-.25,0,1,1,0,0,1-.72-1.21L6,2.64a1,1,0,0,1,1-.76h11a1,1,0,0,1,.77.37,1,1,0,0,1,.21.83L15.26,21.31a1,1,0,1,1-2-.39l3.41-17H7.77L3.4,21.36A1,1,0,0,1,2.43,22.12Z"/>
        <path d="M3.34,18.47a1,1,0,0,1,0-2l11.68,0h0a1,1,0,0,1,0,2l-11.68,0Z"/>
        <path d="M21.57,22.12a1,1,0,0,1-1-.74l-2.74-10a1,1,0,0,1,.71-1.23,1,1,0,0,1,1.22.71l2.74,10a1,1,0,0,1-.7,1.22A.84.84,0,0,1,21.57,22.12Z"/>
        <path d="M10.63,22.12a1,1,0,0,1-.93-.65L8.33,17.82a1,1,0,1,1,1.87-.7l1.37,3.65A1,1,0,0,1,11,22.05.84.84,0,0,1,10.63,22.12Z"/>
        <path d="M13.82,9.35H8.35a1,1,0,0,1,0-2h5.47a1,1,0,0,1,0,2Z"/>
        <path d="M12.91,13H7.44a1,1,0,0,1,0-2h5.47a1,1,0,0,1,0,2Z"/>
    </g>
</svg>