<?xml version="1.0" encoding="iso-8859-1"?>
<!-- Generator: Adobe Illustrator 18.0.0, SVG Export Plug-In . SVG Version: 6.00 Build 0)  -->
<!DOCTYPE svg PUBLIC "-//W3C//DTD SVG 1.1//EN" "http://www.w3.org/Graphics/SVG/1.1/DTD/svg11.dtd">
<svg version="1.1" id="Capa_1" xmlns="http://www.w3.org/2000/svg" xmlns:xlink="http://www.w3.org/1999/xlink" x="0px" y="0px"
	 viewBox="0 0 191.737 191.737" style="enable-background:new 0 0 191.737 191.737;" xml:space="preserve">
<g>
	<path d="M131.449,58.481c15.02,0,27.239-12.219,27.239-27.239S146.469,4.003,131.449,4.003c-15.019,0-27.238,12.219-27.238,27.239
		S116.43,58.481,131.449,58.481z M131.449,18.003c7.3,0,13.239,5.939,13.239,13.239s-5.939,13.239-13.239,13.239
		c-7.3,0-13.238-5.939-13.238-13.239S124.149,18.003,131.449,18.003z"/>
	<path d="M189.723,70.818c-2.714-2.753-7.146-2.787-9.899-0.072c-0.162,0.162-18.817,15.023-74.339-8.707
		C81.471,51.776,62.162,50.808,48.093,59.16c-17.174,10.195-19.279,30.235-19.36,31.083c-0.367,3.833,2.434,7.224,6.265,7.612
		c0.238,0.024,0.475,0.036,0.709,0.036c3.537,0,6.575-2.685,6.958-6.276c0.015-0.139,1.615-13.992,12.682-20.48
		c9.872-5.788,25.308-4.482,44.634,3.778c26.231,11.21,45.529,14.675,59.371,14.674c20.344-0.001,28.896-7.488,30.298-8.87
		C192.404,78.003,192.436,73.571,189.723,70.818z"/>
	<path d="M100.765,92.257c-2.667-2.788-7.085-2.893-9.881-0.235c-33.479,31.822-84.502,80.152-88.165,83.173
		c-3.022,2.335-3.617,6.673-1.317,9.738c1.375,1.833,3.477,2.8,5.605,2.8c1.461,0,2.936-0.457,4.195-1.401
		c3.188-2.392,60.012-56.31,84.269-79.356l33.736,35.27c1.496,1.564,0.999,3.275,0.715,3.938c-0.283,0.663-1.175,2.205-3.339,2.205
		H80.404c-3.866,0-7,3.134-7,7s3.134,7,7,7h46.178c7.18,0,13.393-4.102,16.213-10.704c2.821-6.603,1.491-13.927-3.472-19.115
		L100.765,92.257z"/>
</g>
<g>
</g>
<g>
</g>
<g>
</g>
<g>
</g>
<g>
</g>
<g>
</g>
<g>
</g>
<g>
</g>
<g>
</g>
<g>
</g>
<g>
</g>
<g>
</g>
<g>
</g>
<g>
</g>
<g>
</g>
</svg>
