<?xml version="1.0" encoding="iso-8859-1"?>
<!-- Generator: Adobe Illustrator 19.0.0, SVG Export Plug-In . SVG Version: 6.00 Build 0)  -->
<svg version="1.1" id="Layer_1" xmlns="http://www.w3.org/2000/svg" xmlns:xlink="http://www.w3.org/1999/xlink" x="0px" y="0px"
	 viewBox="0 0 512 512" style="enable-background:new 0 0 512 512;" xml:space="preserve">
<g>
	<g>
		<path d="M430.994,185.696c-20.743-14.576-32.479-23.523-32.479-37.902v-36.948h15.835v-31.67h-15.835V63.34h-31.67v15.835H351.01
			v31.67h15.835v36.948c0,14.378-11.736,23.326-32.479,37.902c-2.452,1.723-4.929,3.469-7.415,5.253L271.835,80.715v-33.21h15.835
			v-31.67h-15.835V0h-31.67v15.835H224.33v31.67h15.835v33.21l-39.886,79.773c-7.657-6.477-15.508-12.003-22.646-17.019
			c-20.742-14.576-32.478-23.523-32.478-37.902V68.619h15.835v-31.67h-15.835V21.113h-31.67v15.835H97.649v31.67h15.835v36.948
			c0,14.378-11.736,23.326-32.478,37.902c-26.391,18.546-62.533,43.943-62.533,99.335c0,29.305,11.409,56.942,31.67,77.573V512
			h411.711V362.604c20.261-20.631,31.67-48.267,31.67-77.573C493.526,229.639,457.384,204.242,430.994,185.696z M256,119.862
			l37.718,75.437h-64.543c-1.813-3.493-3.801-6.795-5.931-9.925L256,119.862z M50.144,242.804c0-38.939,23.836-55.69,49.071-73.424
			c10.387-7.299,21.443-15.068,30.105-24.694c8.662,9.626,19.718,17.395,30.105,24.694c2.04,1.432,4.066,2.861,6.076,4.292
			L59.337,279.836C53.374,268.583,50.144,255.932,50.144,242.804z M176.825,480.33h-31.67v-52.784
			c0-8.745-7.09-15.835-15.835-15.835s-15.835,7.09-15.835,15.835v52.784h-31.67v-84.454h95.01V480.33z M176.825,364.206h-95.01
			v-31.67h95.01V364.206z M183.142,300.866H83.095l106.799-106.799c11.073,11.981,18.601,26.855,18.601,48.737
			C208.495,265.013,199.318,285.886,183.142,300.866z M303.505,343.093V480.33h-95.01V320.377
			c20.261-20.632,31.67-48.268,31.67-77.573c0-5.579-0.382-10.842-1.069-15.835h64.41V343.093z M430.186,480.33h-31.67v-10.557
			c0-8.745-7.09-15.835-15.835-15.835s-15.835,7.09-15.835,15.835v10.557h-31.67V374.763h95.01V480.33z M436.503,343.093H335.175
			V224.374c5.619-4.486,11.585-8.679,17.401-12.766c10.387-7.299,21.443-15.068,30.105-24.694
			c8.663,9.627,19.718,17.395,30.105,24.694c25.235,17.733,49.071,34.483,49.071,73.423
			C461.856,307.24,452.679,328.113,436.503,343.093z"/>
	</g>
</g>
<g>
	<g>
		<rect x="240.165" y="306.144" width="31.67" height="63.34"/>
	</g>
</g>
<g>
</g>
<g>
</g>
<g>
</g>
<g>
</g>
<g>
</g>
<g>
</g>
<g>
</g>
<g>
</g>
<g>
</g>
<g>
</g>
<g>
</g>
<g>
</g>
<g>
</g>
<g>
</g>
<g>
</g>
</svg>
