<svg width="55" height="47" viewBox="0 0 55 47" fill="none" xmlns="http://www.w3.org/2000/svg">
<path d="M20 10.8293C20 6.02931 24.3333 4.49598 26.5 4.32932H44V43.3293H26.5C22.1 43.3293 20.3333 38.996 20 36.8293V10.8293Z" stroke="#696969" stroke-width="3" stroke-linecap="round" stroke-linejoin="bevel"/>
<path d="M43.5 43.3293L49 45.3293C50.3333 45.6626 53 45.6293 53 42.8293C53 40.0293 53 16.3293 53 4.82931C53.1667 3.49598 52.6 1.12931 49 2.32931C45.4 3.52931 43.5 4.16265 43 4.32931" stroke="#696969" stroke-width="3" stroke-linecap="round" stroke-linejoin="bevel"/>
<ellipse cx="17.5" cy="24.5" rx="6.5" ry="22.5" fill="white"/>
<path d="M19.5 24C19.5 30.1868 18.3521 35.7151 16.5601 39.6405C14.7073 43.6991 12.453 45.5 10.5 45.5C8.54697 45.5 6.29273 43.6991 4.43991 39.6405C2.64786 35.7151 1.5 30.1868 1.5 24C1.5 17.8132 2.64786 12.2849 4.43991 8.35948C6.29273 4.30093 8.54697 2.5 10.5 2.5C12.453 2.5 14.7073 4.30093 16.5601 8.35948C18.3521 12.2849 19.5 17.8132 19.5 24Z" stroke="#696969" stroke-width="3"/>
<path d="M4.5 10L11.5 25.5M11.5 25.5L7 43M11.5 25.5L18.5 20" stroke="#696969" stroke-width="2.5" stroke-linecap="round" stroke-linejoin="bevel"/>
<ellipse cx="11" cy="24" rx="3" ry="6.5" fill="#696969"/>
</svg>
