<svg width="48" height="55" viewBox="0 0 48 55" fill="none" xmlns="http://www.w3.org/2000/svg">
<path d="M36.6835 20.4774C41.4835 20.4774 43.0169 24.8087 43.1835 26.9743V44.4658L4.18353 44.4658V26.9743C4.18353 22.5764 8.51686 20.8106 10.6835 20.4774L36.6835 20.4774Z" stroke="#696969" stroke-width="3" stroke-linecap="round" stroke-linejoin="bevel"/>
<path d="M4.18353 43.9661L2.18353 49.4634C1.8502 50.7961 1.88353 53.4614 4.68353 53.4614C7.48353 53.4614 31.1835 53.4614 42.6835 53.4614C44.0169 53.628 46.3835 53.0616 45.1835 49.4634C43.9835 45.8651 43.3502 43.9661 43.1835 43.4663" stroke="#696969" stroke-width="3" stroke-linecap="round" stroke-linejoin="bevel"/>
<path d="M23.5128 19.977C17.326 19.977 11.7976 18.8296 7.87208 17.0384C3.8132 15.1864 2.01285 12.9333 2.01285 10.9821C2.01285 9.03081 3.8132 6.77775 7.87208 4.92568C11.7976 3.13447 17.326 1.98714 23.5128 1.98714C29.6997 1.98714 35.2281 3.13447 39.1536 4.92568C43.2125 6.77775 45.0128 9.03081 45.0128 10.9821C45.0128 12.9333 43.2125 15.1864 39.1536 17.0384C35.2281 18.8296 29.6997 19.977 23.5128 19.977Z" stroke="#696969" stroke-width="3"/>
<path d="M37.5128 4.98496L22.0128 11.9816M22.0128 11.9816L4.51285 7.48375M22.0128 11.9816L27.5128 18.9782" stroke="#696969" stroke-width="2.5" stroke-linecap="round" stroke-linejoin="bevel"/>
<ellipse cx="23.5128" cy="11.4818" rx="2.99855" ry="6.5" transform="rotate(90 23.5128 11.4818)" fill="#696969"/>
</svg>
