<svg width="48" height="56" viewBox="0 0 48 56" fill="none" xmlns="http://www.w3.org/2000/svg">
<path d="M36.6835 20.4871C41.4835 20.4871 43.0169 24.8205 43.1835 26.9871V44.4871L4.18353 44.4871V26.9871C4.18353 22.5871 8.51686 20.8205 10.6835 20.4871L36.6835 20.4871Z" stroke="#696969" stroke-width="3" stroke-linecap="round" stroke-linejoin="bevel"/>
<path d="M4.18353 43.9871L2.18353 49.4871C1.8502 50.8205 1.88353 53.4871 4.68353 53.4871C7.48353 53.4871 31.1835 53.4871 42.6835 53.4871C44.0169 53.6538 46.3835 53.0871 45.1835 49.4871C43.9835 45.8871 43.3502 43.9871 43.1835 43.4871" stroke="#696969" stroke-width="3" stroke-linecap="round" stroke-linejoin="bevel"/>
<ellipse cx="23.0128" cy="17.9871" rx="6.5" ry="22.5" transform="rotate(90 23.0128 17.9871)" fill="white"/>
<path d="M23.5128 19.9871C17.3261 19.9871 11.7978 18.8393 7.87233 17.0472C3.81378 15.1944 2.01285 12.9402 2.01285 10.9871C2.01285 9.03411 3.81378 6.77987 7.87233 4.92706C11.7978 3.13501 17.3261 1.98714 23.5128 1.98714C29.6996 1.98714 35.2279 3.13501 39.1534 4.92706C43.2119 6.77987 45.0128 9.03411 45.0128 10.9871C45.0128 12.9402 43.2119 15.1944 39.1534 17.0472C35.2279 18.8393 29.6996 19.9871 23.5128 19.9871Z" stroke="#696969" stroke-width="3"/>
<path d="M37.5128 4.98714L22.0128 11.9871M22.0128 11.9871L4.51285 7.48714M22.0128 11.9871L27.5128 18.9871" stroke="#696969" stroke-width="2.5" stroke-linecap="round" stroke-linejoin="bevel"/>
<ellipse cx="23.5128" cy="11.4871" rx="3" ry="6.5" transform="rotate(90 23.5128 11.4871)" fill="#696969"/>
</svg>
