<?xml version="1.0" standalone="no"?>
<!DOCTYPE svg PUBLIC "-//W3C//DTD SVG 20010904//EN"
 "http://www.w3.org/TR/2001/REC-SVG-20010904/DTD/svg10.dtd">
<svg version="1.0" xmlns="http://www.w3.org/2000/svg"
 width="512.000000pt" height="512.000000pt" viewBox="0 0 512.000000 512.000000"
 preserveAspectRatio="xMidYMid meet">
<metadata>
Created by potrace 1.14, written by Peter Selinger 2001-2017
</metadata>
<g transform="translate(0.000000,512.000000) scale(0.100000,-0.100000)"
fill="#000000" stroke="none">
<path d="M1 3853 c0 -698 4 -1257 8 -1243 7 23 39 86 181 355 26 50 105 200
175 335 70 135 143 271 161 303 19 32 34 60 34 63 0 4 79 138 123 209 56 89
194 287 262 374 114 146 282 303 400 373 190 114 449 189 704 204 66 4 452 1
858 -5 643 -11 751 -15 838 -31 56 -11 108 -22 118 -25 17 -7 63 -73 99 -145
7 -14 49 -88 94 -165 45 -78 111 -192 146 -255 36 -63 118 -207 183 -320 65
-113 131 -230 148 -260 16 -30 37 -66 47 -80 9 -14 24 -38 32 -55 17 -34 36
-67 102 -178 25 -43 46 -80 46 -82 0 -1 36 -65 81 -141 44 -77 92 -159 105
-184 14 -25 40 -72 60 -105 119 -205 121 -230 31 -400 -27 -52 -132 -255 -197
-380 -40 -77 -88 -167 -107 -200 -19 -33 -38 -67 -43 -76 -4 -8 -21 -39 -36
-68 -16 -29 -41 -75 -55 -102 -15 -28 -30 -50 -35 -50 -5 1 -9 -7 -9 -17 0 -9
-6 -16 -13 -14 -8 1 -11 -2 -8 -7 11 -16 -35 -93 -51 -87 -10 4 -13 1 -8 -13
7 -23 -3 -51 -19 -51 -6 0 -12 -10 -13 -21 -1 -12 -9 -29 -17 -38 -9 -10 -16
-23 -16 -29 0 -7 -4 -12 -10 -12 -5 0 -10 -6 -10 -12 -1 -20 -27 -50 -34 -40
-3 5 3 21 14 35 26 32 25 41 -1 27 -26 -14 -39 -50 -27 -73 7 -14 1 -28 -24
-60 -18 -23 -36 -43 -40 -45 -5 -2 -8 -9 -8 -15 0 -7 -22 -36 -50 -66 -27 -29
-47 -57 -44 -62 3 -5 -2 -9 -11 -9 -27 0 -55 -38 -64 -87 -1 -5 -6 -1 -11 7
-9 13 -12 13 -25 -4 -8 -11 -21 -16 -30 -13 -8 4 -15 2 -15 -4 0 -6 -5 -7 -11
-4 -6 4 -13 -3 -16 -15 -3 -13 -11 -19 -19 -16 -44 18 -47 17 -21 -5 30 -28
34 -39 12 -39 -8 0 -12 -6 -9 -13 3 -8 -10 -30 -27 -50 -34 -38 -56 -49 -45
-22 3 9 0 15 -9 15 -8 0 -15 -7 -15 -15 0 -31 -33 -51 -82 -50 -27 0 -48 -4
-48 -9 0 -4 18 -6 39 -2 24 3 42 2 46 -4 4 -6 2 -9 -4 -8 -5 2 -17 -6 -26 -17
-9 -11 -14 -15 -11 -9 3 7 -4 11 -20 11 -17 0 -22 -2 -13 -7 17 -11 -6 -40
-33 -40 -10 0 -21 -7 -24 -15 -7 -18 -34 -20 -35 -2 0 6 -4 2 -9 -11 -5 -12
-18 -25 -27 -28 -10 -3 -31 -11 -48 -18 -16 -8 -50 -19 -75 -26 -25 -7 -63
-19 -85 -28 -22 -8 -54 -16 -72 -18 -17 -3 -53 -9 -80 -15 -26 -6 -66 -12 -88
-13 -22 -2 -87 -9 -145 -16 -131 -17 -630 -21 -890 -9 -107 5 -325 14 -485 18
-291 9 -333 15 -380 51 -21 16 -75 84 -75 95 0 3 -53 97 -119 208 -65 111
-154 265 -198 342 -103 178 -374 650 -528 915 -65 113 -148 257 -185 320 -36
63 -77 133 -91 155 -26 43 -49 88 -60 120 -4 11 -7 -555 -8 -1257 l-1 -1278
2560 0 2560 0 0 2548 c0 1968 -3 2551 -12 2560 -9 9 -592 12 -2560 12 l-2548
0 1 -1267z m4038 -3092 c-13 -11 -26 -17 -29 -14 -3 3 1 8 8 10 6 3 10 9 6 14
-3 5 5 9 17 9 21 0 21 0 -2 -19z m-34 -41 c-3 -5 -11 -10 -16 -10 -6 0 -7 5
-4 10 3 6 11 10 16 10 6 0 7 -4 4 -10z"/>
<path d="M2155 4509 c-166 -6 -195 -11 -355 -61 -261 -81 -431 -198 -588 -403
-26 -33 -50 -64 -54 -70 -85 -108 -205 -299 -335 -535 -126 -229 -300 -555
-416 -783 -46 -89 -53 -61 57 -252 38 -66 95 -166 127 -223 50 -89 116 -202
279 -482 37 -64 151 -264 174 -304 6 -12 16 -28 22 -36 6 -8 25 -40 41 -70 17
-31 78 -138 137 -237 58 -100 106 -184 106 -187 0 -3 23 -42 50 -87 28 -45 50
-85 50 -89 0 -4 12 -13 28 -20 29 -15 236 -22 1027 -38 435 -9 431 -9 695 33
110 17 138 25 273 77 67 25 173 84 197 108 3 3 21 17 40 31 48 36 140 129 195
197 122 153 187 240 201 270 9 18 53 99 100 179 46 80 84 148 84 151 0 2 15
30 34 61 18 31 57 101 86 156 29 55 56 105 60 110 4 6 35 62 67 125 33 63 71
135 85 160 14 25 40 72 58 105 18 33 39 69 46 80 7 11 18 38 24 60 11 37 10
45 -15 90 -15 28 -37 66 -50 85 -24 38 -160 268 -184 313 -9 16 -21 36 -26 45
-6 9 -30 51 -53 92 -24 41 -47 82 -52 90 -29 47 -100 173 -100 178 0 3 -6 13
-14 21 -7 9 -28 43 -45 76 -18 33 -36 67 -42 75 -19 30 -144 247 -181 315 -22
39 -48 85 -59 103 -10 18 -62 108 -115 200 -122 212 -144 247 -169 263 -30 19
-1160 40 -1490 28z m1198 -357 c56 -35 62 -58 60 -216 -1 -78 -7 -166 -13
-196 -5 -30 -15 -118 -21 -195 -5 -77 -12 -156 -14 -175 -1 -19 -8 -98 -14
-175 -6 -77 -15 -174 -21 -215 -10 -78 -29 -284 -37 -407 l-5 -72 44 -58 c24
-32 51 -67 61 -77 34 -39 19 -193 -29 -303 -8 -17 -14 -34 -14 -38 0 -7 -36
-92 -50 -117 -6 -10 -10 -23 -10 -30 -1 -7 -9 -31 -20 -53 -11 -22 -19 -44
-20 -48 -1 -23 -52 -117 -60 -112 -6 3 -10 0 -10 -8 0 -9 -13 -17 -32 -20 -18
-3 -289 -5 -603 -4 -581 2 -581 2 -640 39 -52 34 -100 115 -114 193 -6 33 -15
134 -21 225 -6 91 -15 192 -20 225 -29 195 -60 612 -86 1167 l-15 346 23 36
c34 52 91 81 160 79 73 -1 106 -18 141 -71 38 -56 42 -95 62 -542 8 -195 18
-374 21 -398 5 -43 6 -43 42 -40 l37 3 5 205 c6 234 11 252 83 295 33 19 58
25 101 25 74 0 118 -19 150 -66 26 -38 26 -40 26 -232 0 -166 2 -193 16 -199
8 -3 19 -2 24 3 5 5 12 90 15 189 10 261 32 297 182 304 71 3 87 0 117 -18 54
-34 59 -64 55 -300 l-4 -206 26 -3 c26 -3 26 -2 32 80 3 46 8 97 11 113 2 17
7 73 11 125 3 52 11 136 16 185 6 50 17 160 25 245 23 243 41 392 54 433 8 28
24 46 63 73 49 33 56 35 114 31 39 -3 74 -12 96 -25z m-745 -2623 c605 -2 623
-2 633 -21 6 -11 8 -26 5 -34 -3 -8 -1 -14 4 -14 6 0 10 -97 9 -257 0 -173 -4
-248 -10 -228 -5 17 -7 48 -4 70 3 22 1 56 -4 75 -7 28 -9 15 -10 -64 -1 -78
-5 -103 -18 -118 -9 -10 -13 -21 -9 -26 4 -4 14 2 22 12 7 11 17 17 21 13 3
-4 -2 -16 -12 -27 -13 -14 -22 -17 -29 -10 -5 5 -16 10 -24 10 -12 0 -12 -3
-2 -15 10 -13 9 -15 -10 -15 -16 0 -20 4 -16 15 5 13 -11 15 -101 15 -58 0
-104 -2 -101 -6 3 -3 33 -5 67 -5 33 0 73 -4 88 -9 16 -5 -239 -9 -580 -9
l-609 -1 -29 30 -30 29 3 280 3 279 25 21 c19 16 34 20 60 17 19 -3 315 -6
658 -7z"/>
<path d="M3201 1136 c-8 -9 -11 -19 -7 -23 9 -9 29 13 24 27 -2 8 -8 7 -17 -4z"/>
<path d="M3205 1060 c-3 -6 -3 -19 0 -30 7 -21 -9 -28 -20 -10 -9 15 -25 2
-25 -19 0 -10 -9 -21 -20 -24 -17 -4 -18 -8 -7 -31 7 -14 15 -26 20 -26 10 0
9 8 -3 31 -12 21 -1 26 18 7 9 -9 12 -9 13 3 1 7 1 19 -1 24 -1 6 4 4 11 -2
21 -21 25 -16 27 37 2 50 -1 59 -13 40z"/>
<path d="M4640 1705 c0 -8 5 -15 10 -15 6 0 10 7 10 15 0 8 -4 15 -10 15 -5 0
-10 -7 -10 -15z"/>
<path d="M4570 1631 c0 -6 9 -9 19 -8 11 0 17 5 15 9 -7 11 -34 10 -34 -1z"/>
<path d="M4445 1371 c-3 -5 -1 -12 5 -16 5 -3 10 1 10 9 0 18 -6 21 -15 7z"/>
<path d="M4413 1349 c-1 -10 2 -19 8 -19 11 0 12 27 1 34 -4 2 -9 -4 -9 -15z"/>
<path d="M4355 1340 c-3 -5 -1 -10 4 -10 6 0 11 5 11 10 0 6 -2 10 -4 10 -3 0
-8 -4 -11 -10z"/>
<path d="M4310 1310 c0 -5 7 -7 15 -4 8 4 15 8 15 10 0 2 -7 4 -15 4 -8 0 -15
-4 -15 -10z"/>
<path d="M4372 1312 c-9 -6 -6 -14 13 -32 14 -13 25 -18 25 -12 0 7 -4 12 -9
12 -5 0 -7 9 -4 20 6 21 -3 25 -25 12z"/>
<path d="M4295 1279 c-4 -6 -5 -12 -2 -15 2 -3 7 2 10 11 7 17 1 20 -8 4z"/>
<path d="M4327 1256 c-4 -10 -5 -21 -2 -24 9 -9 17 6 13 25 -3 17 -4 17 -11
-1z"/>
<path d="M4285 1210 c-3 -5 -1 -10 4 -10 6 0 11 5 11 10 0 6 -2 10 -4 10 -3 0
-8 -4 -11 -10z"/>
<path d="M4240 1172 c0 -4 9 -13 19 -19 16 -10 20 -9 25 3 9 23 8 24 -19 24
-14 0 -25 -3 -25 -8z"/>
<path d="M4313 1153 c-15 -5 -18 -33 -4 -33 8 0 25 30 19 35 -2 1 -9 0 -15 -2z"/>
<path d="M4167 1143 c-13 -12 -7 -23 13 -23 11 0 20 7 20 15 0 15 -21 21 -33
8z"/>
<path d="M4180 1090 c0 -5 4 -10 9 -10 5 0 18 -3 28 -6 16 -5 16 -4 -1 10 -23
18 -36 20 -36 6z"/>
<path d="M4125 1080 c3 -5 8 -10 11 -10 2 0 4 5 4 10 0 6 -5 10 -11 10 -5 0
-7 -4 -4 -10z"/>
<path d="M4173 1058 c2 -7 -6 -28 -20 -45 -25 -34 -23 -44 4 -18 12 13 18 13
30 4 12 -11 13 -9 8 13 -4 15 -2 29 4 32 18 12 12 26 -10 26 -12 0 -19 -5 -16
-12z"/>
<path d="M4084 1042 c-24 -20 -37 -59 -22 -68 5 -3 12 3 15 15 4 16 10 20 30
15 23 -6 24 -5 11 15 -11 18 -11 23 2 31 13 9 13 10 0 10 -8 -1 -24 -8 -36
-18z"/>
<path d="M4210 1041 c0 -6 9 -9 19 -8 11 0 17 5 15 9 -7 11 -34 10 -34 -1z"/>
<path d="M3940 1020 c0 -5 5 -10 10 -10 6 0 10 5 10 10 0 6 -4 10 -10 10 -5 0
-10 -4 -10 -10z"/>
<path d="M4039 941 c11 -7 11 -10 0 -17 -7 -4 -14 -3 -17 4 -2 8 -11 7 -28 -4
-16 -11 -24 -12 -24 -5 0 7 -5 9 -11 5 -6 -3 -9 -14 -6 -24 2 -9 0 -26 -6 -36
-5 -10 -6 -16 -2 -12 5 4 15 2 24 -5 14 -10 14 -10 5 3 -19 26 -12 49 18 59
22 8 28 7 28 -4 0 -8 -4 -17 -10 -20 -18 -11 -11 -20 15 -20 15 0 23 5 21 12
-3 6 -2 14 1 17 4 3 8 17 9 31 2 18 -2 25 -14 25 -13 0 -14 -2 -3 -9z"/>
<path d="M4090 940 c0 -5 5 -10 11 -10 6 0 9 -7 5 -15 -3 -8 -1 -15 4 -15 11
0 13 11 4 34 -7 18 -24 22 -24 6z"/>
<path d="M3897 844 c7 -3 9 -13 6 -22 -6 -14 -5 -15 9 -2 19 17 14 30 -10 29
-10 0 -12 -3 -5 -5z"/>
<path d="M3977 826 c-19 -15 -22 -26 -6 -26 15 0 41 28 31 33 -4 3 -15 0 -25
-7z"/>
<path d="M3857 824 c-3 -3 -3 -13 0 -21 5 -12 7 -12 14 -1 15 23 4 40 -14 22z"/>
<path d="M3870 772 c0 -13 36 -43 43 -36 10 10 -12 44 -28 44 -8 0 -15 -4 -15
-8z"/>
<path d="M3740 760 c0 -5 7 -7 15 -4 8 4 15 8 15 10 0 2 -7 4 -15 4 -8 0 -15
-4 -15 -10z"/>
<path d="M3832 740 c0 -14 2 -19 5 -12 2 6 2 18 0 25 -3 6 -5 1 -5 -13z"/>
<path d="M3865 740 c-3 -5 -1 -10 4 -10 6 0 11 5 11 10 0 6 -2 10 -4 10 -3 0
-8 -4 -11 -10z"/>
<path d="M3910 705 c-7 -9 -8 -15 -2 -15 5 0 12 7 16 15 3 8 4 15 2 15 -2 0
-9 -7 -16 -15z"/>
<path d="M3735 699 l-20 -8 20 -1 c11 -1 14 -4 8 -7 -21 -8 -14 -26 7 -20 14
4 25 -1 33 -14 6 -10 18 -19 25 -19 15 0 38 47 27 58 -4 4 -10 1 -12 -5 -7
-20 -49 -15 -59 6 -7 14 -14 16 -29 10z"/>
<path d="M3693 618 c-12 -16 -27 -55 -17 -46 4 4 14 3 23 -1 13 -7 16 -4 16
14 0 13 -4 21 -9 17 -5 -3 -7 2 -3 11 8 20 3 22 -10 5z"/>
<path d="M3595 575 c0 -25 18 -34 30 -15 7 11 -11 40 -24 40 -3 0 -6 -11 -6
-25z"/>
<path d="M3646 534 c-3 -9 -6 -17 -6 -18 0 -1 9 -2 20 -2 13 0 20 7 20 18 0
22 -26 24 -34 2z"/>
<path d="M3582 502 c-10 -3 -8 -8 5 -17 20 -15 33 -11 33 9 0 13 -15 16 -38 8z"/>
<path d="M3545 470 c-19 -8 -19 -9 3 -9 12 -1 22 4 22 9 0 6 -1 10 -2 9 -2 0
-12 -4 -23 -9z"/>
<path d="M3450 451 c0 -11 26 -22 34 -14 3 3 3 10 0 14 -7 12 -34 11 -34 0z"/>
<path d="M3386 421 c-4 -5 3 -7 14 -4 23 6 26 13 6 13 -8 0 -17 -4 -20 -9z"/>
</g>
</svg>
