<?xml version="1.0" standalone="no"?>
<!DOCTYPE svg PUBLIC "-//W3C//DTD SVG 20010904//EN"
 "http://www.w3.org/TR/2001/REC-SVG-20010904/DTD/svg10.dtd">
<svg version="1.0" xmlns="http://www.w3.org/2000/svg"
 width="220.000000pt" height="220.000000pt" viewBox="0 0 220.000000 220.000000"
 preserveAspectRatio="xMidYMid meet">
<metadata>
Created by potrace 1.14, written by Peter Selinger 2001-2017
</metadata>
<g transform="translate(0.000000,220.000000) scale(0.100000,-0.100000)"
fill="#000000" stroke="none">
<path d="M47 1782 c-15 -16 -17 -54 -17 -325 0 -305 0 -306 22 -321 19 -14 70
-16 355 -16 343 0 339 1 334 -38 -1 -8 3 -20 10 -28 6 -8 10 -16 8 -18 -5 -4
-324 10 -547 24 -133 9 -176 9 -188 0 -18 -16 -19 -79 -1 -86 10 -4 12 -16 6
-52 -12 -71 -11 -89 7 -106 14 -14 14 -17 0 -22 -23 -9 -40 -68 -26 -94 9 -16
8 -25 -1 -37 -11 -13 -10 -18 6 -29 10 -8 15 -14 9 -15 -5 0 0 -4 11 -9 18 -8
17 -9 -7 -9 -21 -1 -28 -6 -28 -21 0 -11 6 -20 13 -20 9 0 9 -3 -1 -9 -29 -18
-9 -46 38 -53 99 -15 403 -30 784 -38 402 -10 876 -33 1016 -50 124 -15 295
-13 310 5 19 23 3 75 -23 75 -19 0 -18 3 10 20 22 13 34 29 37 52 7 36 1 162
-9 219 -5 24 -2 46 8 65 21 40 16 113 -8 130 -14 10 -57 14 -164 14 -149 0
-177 1 -481 19 -96 6 -248 13 -338 17 -138 5 -160 8 -145 19 14 11 16 16 6 26
-7 7 -13 21 -13 31 0 17 26 18 519 18 291 0 530 4 544 9 44 17 48 47 45 350
l-3 283 -24 19 c-23 18 -54 19 -1041 19 -972 0 -1018 -1 -1033 -18z m2063 -21
c6 -12 10 -125 10 -298 0 -225 -3 -283 -14 -299 -14 -18 -33 -19 -550 -22
-361 -2 -536 1 -536 8 0 7 173 10 524 10 288 0 531 3 540 6 14 5 16 41 16 293
0 210 -3 290 -12 299 -16 16 -1979 18 -2009 2 -18 -10 -19 -24 -19 -293 0
-207 3 -286 12 -295 9 -9 102 -12 357 -12 239 0 342 -3 335 -10 -7 -7 -126
-10 -353 -8 -326 3 -343 4 -357 22 -11 16 -14 74 -14 302 0 244 2 285 16 298
14 14 121 16 1029 16 993 0 1015 0 1025 -19z m-1782 -148 c3 -22 1 -23 -82
-23 l-86 0 0 -145 0 -145 -25 0 -25 0 0 170 0 171 108 -3 c102 -3 107 -4 110
-25z m281 12 c100 -51 121 -193 41 -279 -35 -37 -42 -40 -101 -44 -55 -3 -69
0 -98 20 -52 34 -74 80 -74 148 0 68 22 114 73 147 39 27 116 31 159 8z m313
5 c47 -14 68 -43 68 -98 0 -62 -30 -89 -108 -98 l-61 -6 -3 -62 c-3 -58 -4
-61 -28 -61 l-25 0 -3 155 c-1 85 0 160 2 167 7 16 104 18 158 3z m342 -4 c53
-22 80 -69 84 -146 5 -113 -51 -180 -152 -180 -70 0 -115 26 -143 80 -45 86
-17 203 57 242 41 21 108 23 154 4z m424 -133 c2 -118 5 -143 17 -143 12 0 15
-14 15 -60 0 -53 -2 -60 -20 -60 -16 0 -20 7 -20 35 l0 35 -120 0 -120 0 0
-35 c0 -28 -4 -35 -20 -35 -18 0 -20 7 -20 60 0 46 3 60 15 60 32 0 48 48 52
158 3 59 6 113 9 120 3 9 29 12 106 10 l103 -3 3 -142z m309 -13 c34 -85 62
-161 63 -167 0 -7 -11 -13 -24 -13 -20 0 -27 8 -38 43 l-15 42 -75 3 -76 3
-17 -46 c-14 -36 -23 -45 -41 -45 -13 0 -24 4 -24 10 0 9 117 306 127 323 3 4
17 7 31 5 24 -3 32 -18 89 -158z m-1169 -275 c4 -20 4 -20 -11 0 -13 16 -17
17 -31 6 -9 -7 -16 -9 -16 -4 0 30 53 28 58 -2z m206 -1 c9 -23 2 -28 -13 -10
-7 8 -20 12 -28 9 -11 -4 -14 -2 -9 5 11 18 43 15 50 -4z m-99 -54 c-3 -5 -31
-10 -61 -10 -30 0 -54 5 -54 10 0 6 27 10 61 10 37 0 58 -4 54 -10z m-125 -40
c-20 -13 -40 -13 -40 0 0 6 12 10 28 10 21 0 24 -2 12 -10z m65 -10 c-10 -11
-24 -20 -32 -20 -7 0 -13 9 -13 20 0 16 7 20 32 20 30 0 31 0 13 -20z m-7 -36
c-29 -25 -62 -50 -73 -56 l-20 -11 20 23 c23 26 106 89 118 90 5 0 -15 -21
-45 -46z m96 14 c12 -45 8 -48 -46 -48 l-53 1 39 34 c46 41 52 42 60 13z m49
15 c-7 -2 -19 -2 -25 0 -7 3 -2 5 12 5 14 0 19 -2 13 -5z m-199 -12 c7 -10
-23 -20 -43 -13 -11 4 -11 6 0 13 18 11 36 11 43 0z m-338 -116 c-11 -8 -16
-15 -11 -15 5 0 16 7 25 15 27 24 66 2 75 -42 3 -19 2 -40 -4 -47 -7 -8 2 -18
33 -34 51 -27 86 -83 86 -136 0 -82 -87 -156 -183 -156 -51 0 -137 27 -138 43
-4 41 3 138 17 240 14 93 20 117 33 117 9 1 27 7 41 15 33 19 50 18 26 0z
m312 -11 c7 4 12 3 12 -2 0 -6 -8 -13 -17 -16 -20 -8 -48 17 -38 34 5 8 11 6
19 -6 7 -9 18 -14 24 -10z m231 -16 c-6 -12 -17 -17 -26 -14 -8 3 -17 6 -19 6
-2 0 -4 6 -4 13 0 6 13 12 30 13 26 1 28 -1 19 -18z m-81 -48 c70 -43 23 -140
-82 -171 -25 -7 -46 -18 -46 -24 0 -6 12 -23 26 -39 24 -25 32 -28 73 -23 25
4 59 9 75 13 20 5 27 3 22 -4 -3 -6 -2 -13 4 -17 16 -10 3 -24 -37 -40 -52
-22 -114 -19 -153 8 -40 27 -80 98 -80 142 0 41 25 113 48 138 36 41 99 48
150 17z m403 -46 c22 -21 26 -31 18 -45 -13 -24 -31 -24 -54 1 -46 51 -125 -2
-125 -85 0 -48 15 -95 33 -107 33 -21 103 -1 141 41 22 24 39 27 55 7 16 -19
-30 -73 -84 -97 -122 -56 -214 21 -203 169 5 67 30 110 80 136 45 23 103 15
139 -20z m235 -16 c3 -4 1 -52 -5 -107 -14 -133 -12 -138 49 -105 52 28 90 83
90 130 0 57 10 75 39 72 l26 -3 -3 -135 c-2 -74 -5 -142 -8 -150 -2 -8 -15
-15 -29 -15 -23 0 -25 3 -25 48 0 44 -1 47 -16 32 -25 -25 -91 -55 -120 -55
-50 0 -64 24 -64 109 0 98 10 182 21 175 5 -3 9 -1 9 5 0 10 25 9 36 -1z"/>
<path d="M482 1584 c-91 -64 -54 -244 50 -244 70 0 108 47 108 135 0 51 -3 60
-34 91 -38 38 -85 45 -124 18z"/>
<path d="M820 1534 l0 -55 47 3 c39 2 50 8 62 29 13 24 13 29 -2 53 -15 22
-25 26 -62 26 l-45 0 0 -56z"/>
<path d="M1139 1586 c-70 -40 -69 -195 2 -231 69 -36 140 1 153 82 9 49 -7
113 -33 137 -26 24 -90 30 -122 12z"/>
<path d="M1530 1543 c0 -27 -7 -79 -15 -118 -8 -38 -15 -71 -15 -72 0 -2 29
-3 65 -3 l65 0 0 120 0 120 -50 0 -50 0 0 -47z"/>
<path d="M1883 1522 c-12 -31 -25 -65 -29 -74 -5 -16 1 -18 50 -18 31 0 56 2
56 4 0 4 -51 140 -54 143 -1 1 -11 -24 -23 -55z"/>
<path d="M452 921 c1 -3 -4 -19 -10 -34 -7 -16 -12 -29 -12 -31 0 -1 14 -1 30
2 33 5 62 36 53 57 -4 13 -63 18 -61 6z"/>
<path d="M490 799 c-13 -6 -34 -8 -46 -5 -20 5 -22 1 -28 -81 -8 -101 -7 -103
74 -103 82 0 129 37 130 101 0 37 -38 89 -66 89 -7 0 -18 2 -26 4 -7 3 -24 0
-38 -5z"/>
<path d="M832 838 c-6 -7 -13 -25 -17 -41 -9 -33 1 -34 56 -6 27 13 39 26 37
37 -4 21 -60 29 -76 10z"/>
</g>
</svg>
