<?xml version="1.0" encoding="iso-8859-1"?>
<!-- Generator: Adobe Illustrator 19.0.0, SVG Export Plug-In . SVG Version: 6.00 Build 0)  -->
<svg version="1.1" id="Layer_1"
	xmlns="http://www.w3.org/2000/svg"
	xmlns:xlink="http://www.w3.org/1999/xlink" x="0px" y="0px" viewBox="0 0 512 512" style="enable-background:new 0 0 512 512;" xml:space="preserve">
	<g>
		<path d="M489.796,341.243c-6.432-55.636-53.823-98.973-111.154-98.973H270.287l7.947-100.58h7.402
			c4.607,0,8.993-1.975,12.046-5.424c3.054-3.449,4.482-8.042,3.924-12.615l-9.263-75.859c-0.986-8.071-7.84-14.139-15.971-14.139
			h-25.126v-2.399c0-8.885-7.204-16.089-16.089-16.089H66.565c-8.885,0-16.089,7.204-16.089,16.089v2.399H25.352
			c-8.131,0-14.985,6.068-15.97,14.139L0.119,123.65c-0.559,4.573,0.87,9.165,3.924,12.615c3.054,3.45,7.44,5.424,12.046,5.424
			h7.402l25.656,324.708c0.662,8.368,7.644,14.821,16.04,14.821h73.925c11.617,9.739,26.575,15.617,42.884,15.617h241.697
			c36.864,0,66.856-29.992,66.856-66.857v-6.878C503.492,414.197,512,399.288,512,382.424
			C512,365.237,503.162,350.081,489.796,341.243z M378.642,274.447c36.659,0,67.599,24.878,76.873,58.633H150.17
			c9.275-33.754,40.214-58.633,76.873-58.633H378.642z M34.262,109.511l5.334-43.68H262.13l5.333,43.68H34.262z M80.053,449.041
			L55.77,141.69h190.186l-7.947,100.58h-10.965c-57.331,0-104.722,43.338-111.154,98.974c-13.365,8.838-22.204,23.994-22.204,41.182
			c0,16.863,8.508,31.772,21.452,40.676v6.878c0,6.622,0.983,13.017,2.784,19.062H80.053z M423.693,464.657H181.995
			c-18.521,0-33.698-14.595-34.632-32.888h310.962C457.389,450.063,442.213,464.657,423.693,464.657z M462.656,399.591H143.03
			c-9.466,0-17.166-7.701-17.166-17.166c0-9.466,7.701-17.167,17.166-17.167h319.626c9.465,0,17.166,7.701,17.166,17.167
			C479.822,391.891,472.121,399.591,462.656,399.591z"/>
	</g>
</svg>
