<?xml version="1.0" encoding="iso-8859-1"?>
<!-- Generator: Adobe Illustrator 19.0.0, SVG Export Plug-In . SVG Version: 6.00 Build 0)  -->
<svg version="1.1" id="Layer_1"
	xmlns="http://www.w3.org/2000/svg"
	xmlns:xlink="http://www.w3.org/1999/xlink" x="0px" y="0px" viewBox="0 0 512 512" style="enable-background:new 0 0 512 512;" xml:space="preserve">
	<g>

		<path d="M493.883,152.357H366.698V69.379c0-10.005-8.112-18.117-18.117-18.117H163.419c-10.005,0-18.117,8.112-18.117,18.117
				v82.978H18.117C8.111,152.357,0,160.469,0,170.474v272.147c0,10.005,8.112,18.117,18.117,18.117c32.54,0,465.171,0,475.766,0
				c10.005,0,18.117-8.111,18.117-18.117V170.474C512,160.469,503.888,152.357,493.883,152.357z M145.302,424.504H36.234V188.591
				h109.069V424.504z M275.522,424.504h-39.045v-39.045h39.045V424.504z M330.464,118.539h-32.979c-23.94,0-23.964,36.234,0,36.234
				h32.979c0,19.442,0,28.501,0,37.441h-32.979c-23.94,0-23.964,36.234,0,36.234h32.979v37.441h-32.979
				c-23.94,0-23.964,36.234,0,36.234h32.979v122.382h-18.707v-57.162c0-10.005-8.111-18.117-18.117-18.117h-75.279
				c-10.005,0-18.117,8.111-18.117,18.117v57.162h-18.707V302.122h32.977c23.939,0,23.965-36.234,0-36.234h-32.979v-37.441h32.979
				c23.939,0,23.965-36.234,0-36.234h-32.979c0-8.91,0-17.94,0-37.441h32.979c23.939,0,23.965-36.234,0-36.234h-32.979V87.495
				h148.928V118.539z M475.766,424.504H366.698V188.591h109.069V424.504z"/>
		<path d="M401.723,257.434h39.017c23.939,0,23.965-36.234,0-36.234h-39.017C377.784,221.201,377.758,257.434,401.723,257.434z"/>
		<path d="M71.259,257.434h39.017c23.94,0,23.965-36.234,0-36.234H71.259C47.32,221.201,47.294,257.434,71.259,257.434z"/>
	</g>

</svg>
