<svg width="878" height="255" viewBox="0 0 878 255" fill="none" xmlns="http://www.w3.org/2000/svg">
<path d="M1.25 56C1.25 42.7653 1.25265 32.9651 2.26398 25.4429C3.27047 17.9568 5.25535 12.9144 9.08489 9.08489C12.9144 5.25535 17.9568 3.27047 25.4429 2.26398C32.9651 1.25265 42.7653 1.25 56 1.25H836C845.935 1.25 853.26 1.25265 858.876 2.0077C864.456 2.75791 868.161 4.23022 870.965 7.03464C873.77 9.83906 875.242 13.5439 875.992 19.1239C876.747 24.7398 876.75 32.0652 876.75 42V213C876.75 222.935 876.747 230.26 875.992 235.876C875.242 241.456 873.77 245.161 870.965 247.965C868.161 250.77 864.456 252.242 858.876 252.992C853.26 253.747 845.935 253.75 836 253.75H56C42.7653 253.75 32.9651 253.747 25.4429 252.736C17.9568 251.73 12.9144 249.745 9.08489 245.915C5.25535 242.086 3.27047 237.043 2.26398 229.557C1.25265 222.035 1.25 212.235 1.25 199V56Z" stroke="#8F8F8F" stroke-width="2.5"/>
</svg>
